<?xml version="1.0" standalone="no"?>
<!DOCTYPE svg PUBLIC "-//W3C//DTD SVG 20010904//EN" "http://www.w3.org/TR/2001/REC-SVG-20010904/DTD/svg10.dtd">
<!-- Created using Krita: https://krita.org -->
<svg xmlns="http://www.w3.org/2000/svg" 
    xmlns:xlink="http://www.w3.org/1999/xlink"
    xmlns:krita="http://krita.org/namespaces/svg/krita"
    xmlns:sodipodi="http://sodipodi.sourceforge.net/DTD/sodipodi-0.dtd"
    width="1136pt"
    height="1027pt"
    viewBox="0 0 1136 1027">
<defs/>
<path id="shape4" transform="translate(473.932255356937, 53.5400447217581)" fill="none" stroke="#f1e2c5" stroke-width="14.9999999999988" stroke-linecap="square" stroke-linejoin="bevel" d="M0.341077 394.584C-6.04793 399.203 79.2293 326.654 96.2331 305.751C126.81 273.356 155.549 241.35 190.541 188.2C206.295 164.786 222.506 130.198 248.082 98.5911C265.622 75.6136 286.891 44.7042 301.068 31.4599C334.721 1.99945 371.663 1.90935 413.569 0.0668534C431.655 -0.728322 453.036 5.62045 467.563 16.4206C468.73 17.2882 472.931 20.7413 470.068 18.335" sodipodi:nodetypes="cccccccc"/><g id="group0" transform="translate(10.5619365924734, 64.8062329725948)" fill="none">
  <path id="shape0" transform="translate(0, 564.043802128063)" fill="none" stroke="#f1e2c5" stroke-width="14.9999999999988" stroke-linecap="square" stroke-linejoin="bevel" d="M92.9577 246.106C87.1573 244.971 79.8622 242.678 76.9381 241.15C68.4882 236.368 55.3888 231.146 42.0889 220.165C15.9982 195.321 -5.45483 167.877 1.23562 115.879C5.73484 81.1286 32.6225 36.6871 65.8891 20.8174C75.38 16.2899 120.885 1.31623 123.792 0" sodipodi:nodetypes="cccccc"/>
  <path id="shape1" transform="translate(135.576414540589, 426.960806244884)" fill="none" stroke="#f1e2c5" stroke-width="14.9999999999988" stroke-linecap="square" stroke-linejoin="bevel" d="M0 132.127C5.79818 129.668 11.8058 127.888 17.7098 125.716C31.1637 120.768 44.6375 115.4 58.3127 111.129C109.29 95.2059 159.971 71.0355 206.038 44.471C221.988 35.2734 237.67 26.1088 253.12 16.0809C258.716 12.4489 263.817 7.67298 268.958 3.39043C270.364 2.21953 276.875 -1.47524 273.71 0.643006" sodipodi:nodetypes="ccccccc"/>
  <path id="shape2" transform="translate(416.438104017816, 420.068813225287)" fill="none" stroke="#f1e2c5" stroke-width="14.9999999999988" stroke-linecap="square" stroke-linejoin="bevel" d="M0 0" sodipodi:nodetypes="c"/>
  <path id="shape3" transform="translate(427.480300935929, 397.913951307979)" fill="none" stroke="#f1e2c5" stroke-width="14.9999999999988" stroke-linecap="square" stroke-linejoin="bevel" d="M0.0170903 15.7992C-0.765514 16.5002 25.6254 -5.28609 18.4468 1.21167" sodipodi:nodetypes="cc"/>
  <path id="shape5" transform="translate(948.356513434638, 19.245163177729)" fill="none" stroke="#f1e2c5" stroke-width="14.9999999999988" stroke-linecap="square" stroke-linejoin="bevel" d="M0.451819 0.679984C-1.88686 -1.81362 5.20046 2.49977 13.7101 14.4686C20.8943 23.3505 22.9303 44.3341 21.7396 38.9607" sodipodi:nodetypes="ccc"/>
  <path id="shape6" transform="matrix(1 0 0 -1 972.460934990639 78.3471678366038)" fill="none" stroke="#f1e2c5" stroke-width="14.9999999999988" stroke-linecap="square" stroke-linejoin="bevel" d="M0.115648 0.102423C0.123487 -0.829545 -0.148436 4.95618 0.115648 3.0307" sodipodi:nodetypes="cc"/>
  <path id="shape7" transform="translate(65.8748189235515, 0)" fill="none" stroke="#f1e2c5" stroke-width="14.9999999999988" stroke-linecap="square" stroke-linejoin="bevel" d="M706.046 11.6167C664.936 -18.8245 595.586 16.2154 561.544 51.7298C473.987 143.076 410.264 251.204 309.432 330.332C271.451 360.137 229.31 388.286 185.751 409.091C151.903 425.258 114.488 435.718 82.084 454.816C58.8716 468.498 19.8073 495.621 6.0633 520.194C-2.54523 535.556 -0.418128 563.073 2.8957 569.713" sodipodi:nodetypes="ccccccc"/>
  <path id="shape8" transform="translate(101.041138165799, 464.943771653957)" fill="none" stroke="#f1e2c5" stroke-width="14.9999999999988" stroke-linecap="square" stroke-linejoin="bevel" d="M447.397 0C434.209 11.1426 393.578 37.1847 378.647 45.5001C343.419 65.6205 325.33 74.3363 284.558 91.6726C183.361 129.29 23.5614 162.499 2.71525 291.304C-1.4075 316.778 -1.71047 340.892 8.04259 365.093C35.7948 433.955 111.602 446.82 119.094 448.588" sodipodi:nodetypes="cccccc"/>
  <path id="shape9" transform="translate(230.034316754291, 914.768802992534)" fill="none" stroke="#f1e2c5" stroke-width="14.9999999999988" stroke-linecap="square" stroke-linejoin="bevel" d="M0 0C10.4586 1.66619 39.4855 0.985663 34.4715 1.06066" sodipodi:nodetypes="cc"/>
  <path id="shape10" transform="translate(286.30502794881, 818.113225953061)" fill="none" stroke="#f1e2c5" stroke-width="14.9999999999988" stroke-linecap="square" stroke-linejoin="bevel" d="M0.994549 96.068C-8.99936 96.8645 59.2357 92.4556 75.4199 86.4123C130.646 75.0579 186.71 43.5419 230.133 14.4197C234.504 11.6991 255.142 -1.64968 252.133 0.169715" sodipodi:nodetypes="cccc"/>
  <path id="shape11" transform="translate(557.60288978042, 622.193899822893)" fill="none" stroke="#f1e2c5" stroke-width="14.9999999999988" stroke-linecap="square" stroke-linejoin="bevel" d="M0.528967 185.625C-7.53036 191.258 78.9665 134.915 92.3353 122C136.947 89.8468 151.741 77.1273 188.333 43.0684C212.408 22.226 209.502 25.8041 236.335 0" sodipodi:nodetypes="cccc"/>
  <path id="shape12" transform="translate(558.688067769044, 92.7232105722057)" fill="none" stroke="#f1e2c5" stroke-width="14.9999999999988" stroke-linecap="square" stroke-linejoin="bevel" d="M0 364.471C5.1308 360.981 26.2997 343.288 28.5579 341.482C39.7939 328.89 55.263 317.373 66.3262 304.579C91.0731 275.96 101.668 263.434 126.468 235.057C197.028 154.32 268.891 47.5134 375.7 11.9273C548.619 -45.6846 562.813 117.93 496.357 234.927C469.055 282.994 435.971 321.55 400.897 363.663C376.541 392.909 272.263 495.683 245.25 519.971" sodipodi:nodetypes="cccccccc"/>
  <ellipse id="shape13" transform="translate(342.438063407499, 696.193767027344)" rx="5.99999999999955" ry="5.49999999999955" cx="5.99999999999955" cy="5.49999999999955" fill="#f0e3c5" fill-rule="evenodd" stroke="#f0e3c5" stroke-width="6.01999999999952" stroke-linecap="square" stroke-linejoin="bevel"/>
  <ellipse id="shape14" transform="translate(475.438063407488, 569.193767027354)" rx="7.49999999999943" ry="6.49999999999943" cx="7.49999999999943" cy="6.49999999999943" fill="#f0e3c5" fill-rule="evenodd" stroke="#f0e3c5" stroke-width="6.01999999999952" stroke-linecap="square" stroke-linejoin="bevel"/>
  <ellipse id="shape15" transform="translate(867.438063407457, 276.193767027378)" rx="5.49999999999955" ry="3.99999999999966" cx="5.49999999999955" cy="3.99999999999966" fill="#f0e3c5" fill-rule="evenodd" stroke="#f0e3c5" stroke-width="6.01999999999952" stroke-linecap="square" stroke-linejoin="bevel"/>
  <ellipse id="shape16" transform="translate(740.438063407467, 512.193767027359)" rx="0.5" ry="3.49999999999966" cx="0.5" cy="3.49999999999966" fill="#f0e3c5" fill-rule="evenodd" stroke="#f0e3c5" stroke-width="6.01999999999952" stroke-linecap="square" stroke-linejoin="bevel"/>
  <ellipse id="shape17" transform="translate(667.438063407473, 417.193767027366)" rx="4.49999999999955" ry="0.999999999999886" cx="4.49999999999955" cy="0.999999999999886" fill="#f0e3c5" fill-rule="evenodd" stroke="#f0e3c5" stroke-width="6.01999999999952" stroke-linecap="square" stroke-linejoin="bevel"/>
  <ellipse id="shape01" transform="matrix(0.999999965869214 0 0 0.999999965869214 710.53219732734 425.068759417483)" rx="10.8591793135665" ry="2.97194020800907" cx="10.8591793135665" cy="2.97194020800907" fill="#f0e3c5" fill-rule="evenodd" stroke="#f0e3c5" stroke-width="6.01999999999952" stroke-linecap="square" stroke-linejoin="bevel"/>
  <ellipse id="shape01" transform="matrix(0.999999965869214 0 0 0.999999965869214 725.515530973673 381.943868399137)" rx="19.5238240672269" ry="7.2373247725585" cx="19.5238240672269" cy="7.2373247725585" fill="#f0e3c5" fill-rule="evenodd" stroke="#f0e3c5" stroke-width="6.01999999999952" stroke-linecap="square" stroke-linejoin="bevel"/>
  <ellipse id="shape02" transform="matrix(0.99999996790848 0 0 0.99999996790848 763.93810330711 516.966698062872)" rx="1.78644550320962" ry="6.17605407161205" cx="1.78644550320962" cy="6.17605407161205" fill="#f0e3c5" fill-rule="evenodd" stroke="#f0e3c5" stroke-width="6.01999999999952" stroke-linecap="square" stroke-linejoin="bevel"/>
  <ellipse id="shape03" transform="matrix(0.999999933110168 0 0 0.999999933110168 799.188076205283 475.888342638048)" rx="7.0583327877788" ry="15.02771921035" cx="7.0583327877788" cy="15.02771921035" fill="#f0e3c5" fill-rule="evenodd" stroke="#f0e3c5" stroke-width="6.01999999999952" stroke-linecap="square" stroke-linejoin="bevel"/>
  <ellipse id="shape04" transform="matrix(0.99999996790848 0 0 0.99999996790848 300.661138643187 757.46076632296)" rx="0.5" ry="3.49999999999966" cx="0.5" cy="3.49999999999966" fill="#f0e3c5" fill-rule="evenodd" stroke="#f0e3c5" stroke-width="6.01999999999952" stroke-linecap="square" stroke-linejoin="bevel"/>
  <ellipse id="shape05" transform="matrix(0.99999990101865 0 0 0.99999990101865 359.41114955563 721.155343098746)" rx="7.0583327877788" ry="15.02771921035" cx="7.0583327877788" cy="15.02771921035" fill="#f0e3c5" fill-rule="evenodd" stroke="#f0e3c5" stroke-width="6.01999999999952" stroke-linecap="square" stroke-linejoin="bevel"/>
  <ellipse id="shape06" transform="matrix(0.99999996790848 0 0 0.99999996790848 620.448095388977 568.651915376523)" rx="0.5" ry="3.49999999999966" cx="0.5" cy="3.49999999999966" fill="#f0e3c5" fill-rule="evenodd" stroke="#f0e3c5" stroke-width="6.01999999999952" stroke-linecap="square" stroke-linejoin="bevel"/>
  <ellipse id="shape07" transform="matrix(0.999999932132797 0 0 0.999999932132797 1014.35672926969 201.827783638262)" rx="19.5238240672269" ry="7.2373247725585" cx="19.5238240672269" cy="7.2373247725585" fill="#f0e3c5" fill-rule="evenodd" stroke="#f0e3c5" stroke-width="6.01999999999952" stroke-linecap="square" stroke-linejoin="bevel"/>
  <ellipse id="shape08" transform="matrix(0.999999933110168 0 0 0.999999933110168 968.078571562775 184.317857735676)" rx="1.78644550320962" ry="6.17605407161205" cx="1.78644550320962" cy="6.17605407161205" fill="#f0e3c5" fill-rule="evenodd" stroke="#f0e3c5" stroke-width="6.01999999999952" stroke-linecap="square" stroke-linejoin="bevel"/>
  <ellipse id="shape09" transform="matrix(0.999999965869214 0 0 0.999999965869214 564.159970081565 184.029374730935)" rx="4.49999999999955" ry="0.999999999999886" cx="4.49999999999955" cy="0.999999999999886" fill="#f0e3c5" fill-rule="evenodd" stroke="#f0e3c5" stroke-width="6.01999999999952" stroke-linecap="square" stroke-linejoin="bevel"/>
  <ellipse id="shape010" transform="matrix(0.999999965869214 0 0 0.999999965869214 692.373089698371 35.2510716213073)" rx="10.8591793135665" ry="2.97194020800907" cx="10.8591793135665" cy="2.97194020800907" fill="#f0e3c5" fill-rule="evenodd" stroke="#f0e3c5" stroke-width="6.01999999999952" stroke-linecap="square" stroke-linejoin="bevel"/>
  <ellipse id="shape011" transform="matrix(0.999999956062007 0 0 0.999999956062007 111.039537277338 512.693612220022)" rx="4.49999999999955" ry="0.999999999999886" cx="4.49999999999955" cy="0.999999999999886" fill="#f0e3c5" fill-rule="evenodd" stroke="#f0e3c5" stroke-width="6.01999999999952" stroke-linecap="square" stroke-linejoin="bevel"/>
  <ellipse id="shape011" transform="matrix(0.999999956062007 0 0 0.999999956062007 123.752664225827 497.41530064184)" rx="10.8591793135665" ry="2.97194020800907" cx="10.8591793135665" cy="2.97194020800907" fill="#f0e3c5" fill-rule="evenodd" stroke="#f0e3c5" stroke-width="6.01999999999952" stroke-linecap="square" stroke-linejoin="bevel"/>
  <ellipse id="shape18" transform="translate(247.438063407507, 449.193767027364)" rx="9.9999999999992" ry="0.999999999999886" cx="9.9999999999992" cy="0.999999999999886" fill="#f0e3c5" fill-rule="evenodd" stroke="#f0e3c5" stroke-width="6.01999999999952" stroke-linecap="square" stroke-linejoin="bevel"/>
  <ellipse id="shape19" transform="translate(278.438062608142, 424.193768313296)" rx="3.99999999999966" ry="6.99999999999943" cx="3.99999999999966" cy="6.99999999999943" fill="#f0e3c5" fill-rule="evenodd" stroke="#f0e3c5" stroke-width="6.01999999999952" stroke-linecap="square" stroke-linejoin="bevel"/>
  <ellipse id="shape20" transform="translate(573.43806340748, 143.193767027388)" rx="2.99999999999977" ry="11.9999999999991" cx="2.99999999999977" cy="11.9999999999991" fill="#f0e3c5" fill-rule="evenodd" stroke="#f0e3c5" stroke-width="6.01999999999952" stroke-linecap="square" stroke-linejoin="bevel"/>
  <ellipse id="shape21" transform="translate(592.438064067821, 175.193766332289)" rx="0.999999999999886" ry="3.99999999999966" cx="0.999999999999886" cy="3.99999999999966" fill="#f0e3c5" fill-rule="evenodd" stroke="#f0e3c5" stroke-width="6.01999999999952" stroke-linecap="square" stroke-linejoin="bevel"/>
  <path id="shape22" transform="translate(97.3408503803596, 229.405510712992)" fill="#f1e2c5" fill-rule="evenodd" stroke="#f0e3c5" stroke-width="6.01999999999952" stroke-linecap="square" stroke-linejoin="bevel" d="M29.6985 0C25.3994 17.7159 21.4408 40.7972 0 43.6638C19.7581 49.3952 27.0597 76.2665 29.8753 90.1561C32.4643 73.5873 41.0268 50.2807 58.8666 44.0174C40.6554 37.3108 33.3375 17.5742 29.6985 0Z" sodipodi:nodetypes="ccccc"/>
  <path id="shape012" transform="matrix(0.999999966874852 0 0 0.999999966874852 176.66401451579 291.193852720388)" fill="#f1e2c5" stroke="#f0e3c5" stroke-width="6.01999999999952" stroke-linecap="square" stroke-linejoin="bevel" d="M13.2554 0C11.3366 8.51245 9.56974 19.603 0 20.9804C8.8187 23.7343 12.0776 36.6459 13.3343 43.3198C14.4899 35.3585 18.3116 24.1598 26.2741 21.1503C18.1459 17.9278 14.8796 8.44437 13.2554 0Z" sodipodi:nodetypes="ccccc"/>
  <path id="shape013" transform="matrix(0.999999966874852 0 0 0.999999966874852 163.164015579905 214.943849090721)" fill="#f1e2c5" stroke="#f0e3c5" stroke-width="6.01999999999952" stroke-linecap="square" stroke-linejoin="bevel" d="M18.3005 0C15.6513 11.9512 13.212 27.522 0 29.4558C12.1751 33.3223 16.6744 51.4498 18.4094 60.8198C20.0048 49.6424 25.2811 33.9196 36.2741 29.6944C25.0522 25.1701 20.5429 11.8557 18.3005 0Z" sodipodi:nodetypes="ccccc"/>
 </g>
</svg>
